<?xml version="1.0" standalone="no"?><!DOCTYPE svg PUBLIC "-//W3C//DTD SVG 1.1//EN" "http://www.w3.org/Graphics/SVG/1.1/DTD/svg11.dtd"><svg t="1751014094203" class="icon" viewBox="0 0 2048 1024" version="1.1" xmlns="http://www.w3.org/2000/svg" p-id="10026" xmlns:xlink="http://www.w3.org/1999/xlink" width="512" height="256"><path d="M999.68 1024H24.96c-21.12 0-24.96-3.84-24.96-24.96V24.96C0 3.84 3.84 0 24.96 0h1998.08c21.12 0 24.96 3.84 24.96 24.96v974.08c0 21.12-3.84 24.96-24.96 24.96h-960c-21.76-24.32-14.72-56.96-23.68-85.76 0-14.08 0-28.8-3.2-39.68v12.16a410.88 410.88 0 0 1-36.48 113.28z" fill="#FEFEFE" p-id="10027"></path><path d="M999.68 1024c0-41.6 22.4-80 24.96-121.6 10.88-3.2 14.08 0 14.08 11.52s0 13.44 3.2 19.2l17.92 90.88z" fill="#FDFDFD" p-id="10028"></path><path d="M54.4 880c-17.92-10.88-12.16-28.16-10.24-42.88q17.28-180.48 35.84-361.6c13.44-128 27.52-262.4 40.96-394.24 4.48-41.6 7.68-44.8 48-44.8a384 384 0 0 0 54.4 0c26.88-3.2 34.56 9.6 36.48 33.28 7.68 112 15.36 224 23.68 336 4.48 59.52 9.6 118.4 14.72 183.04A59.52 59.52 0 0 0 320 547.2c41.6-157.44 83.84-314.88 128-472.32 7.04-28.16 19.2-43.52 50.56-39.04a341.12 341.12 0 0 0 51.2 0c36.48 0 40.32 3.84 36.48 41.6L565.76 256 512 776.96c0 26.88-7.04 53.76-10.24 80.64a21.76 21.76 0 0 1-27.52 22.4 90.24 90.24 0 0 0-18.56 0c-38.4 0-41.6-4.48-37.12-42.88q23.04-224 45.44-448v-48A71.04 71.04 0 0 0 448 377.6Q384 606.08 320 832c-4.48 16-4.48 35.84-23.04 45.44a56.32 56.32 0 0 1-48.64 0c-16-9.6-14.72-26.24-16-41.6-10.88-141.44-21.12-282.88-32-424.96 0-19.2-4.48-38.4-7.04-64a103.04 103.04 0 0 0-16.64 56.32c-14.72 144.64-28.8 288.64-44.16 432.64a53.76 53.76 0 0 1-16 42.88 77.44 77.44 0 0 1-62.08 1.28zM752.64 366.72a69.12 69.12 0 0 0-41.6 46.72c-5.12 13.44-5.76 28.8-17.92 38.4a85.76 85.76 0 0 1-64 0c-12.16-14.72-3.84-30.72 0-45.44a176.64 176.64 0 0 1 94.72-138.24c80.64-32 156.16-16 176.64 75.52a429.44 429.44 0 0 1 0 131.2c-10.88 128-28.8 250.88-33.92 376.96 0 21.12-8.96 30.08-31.36 28.8s-49.92 7.68-55.68-30.72c0-16-11.52 0-16.64 0a119.68 119.68 0 0 1-95.36 40.96 71.04 71.04 0 0 1-64-40.32c-40.96-75.52-11.52-242.56 40.32-286.08a187.52 187.52 0 0 1 91.52-42.24 96 96 0 0 0 80.64-131.2c-4.48-12.16-10.24-25.6-26.88-27.52a24.96 24.96 0 0 0-36.48 3.2zM1348.48 891.52a124.16 124.16 0 0 1-68.48-70.4 413.44 413.44 0 0 1-29.44-202.24 585.6 585.6 0 0 1 83.84-293.76A128 128 0 0 1 1452.16 256a122.24 122.24 0 0 1 94.72 101.76 628.48 628.48 0 0 1 12.8 226.56 35.84 35.84 0 0 1-42.24 37.12h-156.16c-21.12 0-28.8 8.96-30.08 27.52a226.56 226.56 0 0 0 5.76 77.44c5.76 19.2 10.24 41.6 36.48 44.8a64 64 0 0 0 70.4-23.68c5.76-9.6 12.8-19.2 18.56-28.8a47.36 47.36 0 0 1 58.24-21.12 18.56 18.56 0 0 1 14.08 24.96 268.16 268.16 0 0 1-116.48 169.6 35.84 35.84 0 0 1-14.72 0 68.48 68.48 0 0 1-55.04-0.64zM1763.84 390.4a81.28 81.28 0 0 0-46.72 64 998.4 998.4 0 0 0-24.96 168.32 26572.8 26572.8 0 0 0-23.68 224c0 12.8 0 28.8-15.36 32a97.92 97.92 0 0 1-64 0c-10.88-5.12-7.68-23.04-6.4-36.48 8.32-82.56 17.28-165.12 25.6-247.68s19.2-181.12 27.52-272c5.12-50.56 17.28-59.52 67.2-49.92 17.92 0 12.16 17.28 15.36 27.52s-5.12 17.28 5.12 21.12 14.08-9.6 18.56-15.36A96 96 0 0 1 1824 256a70.4 70.4 0 0 1 73.6 46.08 320 320 0 0 1 16 156.16c-11.52 128-26.24 259.2-39.68 388.48 0 12.16 0 29.44-14.08 32.64a108.16 108.16 0 0 1-64 0c-10.24-3.84-8.32-21.12-7.04-33.28 10.24-102.4 21.12-204.8 30.72-307.2a791.04 791.04 0 0 0 0-87.04 69.76 69.76 0 0 0-23.04-58.24 33.92 33.92 0 0 0-32.64-3.2z" p-id="10029"></path><path d="M1180.16 594.56a3.2 3.2 0 0 1-3.2 0 15.36 15.36 0 0 0-3.84 23.04c0 5.12 0 10.24-3.84 12.16-26.88 0-33.92-28.8-51.84-42.24-3.84-12.8 5.12-23.04 6.4-35.2a83.2 83.2 0 0 1 33.92-64 40.96 40.96 0 0 1 30.08 0 31.36 31.36 0 0 1 11.52 41.6 25.6 25.6 0 0 1-10.24 22.4c-17.28 16 1.28 33.28-8.96 42.24z" fill="#C92339" p-id="10030"></path><path d="M1030.4 451.84a367.36 367.36 0 0 1 5.76 83.84 79.36 79.36 0 0 1-3.2 27.52 27.52 27.52 0 0 1-33.28 14.08 16.64 16.64 0 0 1-8.32-5.12 181.76 181.76 0 0 1-7.04-64 115.84 115.84 0 0 1 24.96-58.88L1017.6 448a16 16 0 0 1 12.8 3.84z" fill="#CA2439" p-id="10031"></path><path d="M1258.88 332.16v11.52a39.68 39.68 0 0 1-37.76 5.12c-10.88-5.12-14.08-16-19.2-25.6a136.32 136.32 0 0 1-4.48-17.28 115.84 115.84 0 0 1 24.96-46.08 21.76 21.76 0 0 1 32 0c0 22.4 13.44 46.72 4.48 72.32z" fill="#F59A26" p-id="10032"></path><path d="M1156.48 499.84a95.36 95.36 0 0 0-24.32 60.16c-29.44 7.68-35.2 0-30.08-36.48a512 512 0 0 1 31.36-83.84 9.6 9.6 0 0 1 12.8 0 135.04 135.04 0 0 1 15.36 33.92 27.52 27.52 0 0 1-5.12 26.24z" fill="#CB263A" p-id="10033"></path><path d="M988.16 505.6a167.04 167.04 0 0 1 5.76 64 35.2 35.2 0 0 1-18.56 26.88 12.16 12.16 0 0 1-8.32 0A853.12 853.12 0 0 1 960 476.16c14.08-6.4 21.76 4.48 30.72 12.16s1.92 12.16-2.56 17.28z" fill="#CB273A" p-id="10034"></path><path d="M1096.96 814.08c0 32-21.76 32-42.88 35.2h-10.24l-4.48-5.76a32 32 0 0 1 0-7.68 85.76 85.76 0 0 0 8.96-24.32 64 64 0 0 1 17.28-29.44 28.8 28.8 0 0 1 17.92 0 21.12 21.12 0 0 1 8.32 4.48 33.92 33.92 0 0 1 5.12 27.52z" fill="#7F2B7D" p-id="10035"></path><path d="M1006.08 271.36v6.4c0 14.72 0 31.36-19.2 37.12-12.8-5.76-5.12-17.28-7.04-24.96v28.8a8.96 8.96 0 0 1-7.68 3.84A9.6 9.6 0 0 1 960 320a46.72 46.72 0 0 1 0-35.84c5.76-13.44 0-28.8 5.12-42.24v-10.88a7.04 7.04 0 0 1 7.68 0c10.88 12.16 23.04 24.96 33.28 40.32z" fill="#F69923" p-id="10036"></path><path d="M1065.6 654.72a103.04 103.04 0 0 1 10.88-47.36c17.92-7.68 25.6 5.76 33.92 17.28a35.84 35.84 0 0 1 0 31.36c0 3.84 0 8.32-4.48 12.8s-5.76 14.72-15.36 16-29.44-10.88-24.96-30.08z" fill="#B7234C" p-id="10037"></path><path d="M1252.48 366.72c-10.88 18.56-3.2 42.88-17.92 60.8-14.08-14.72-22.4-33.92-37.76-47.36a18.56 18.56 0 0 1 0-12.8 27.52 27.52 0 0 1 16.64-20.48h32.64c7.68 0 13.44 8.96 6.4 19.84z" fill="#E6712A" p-id="10038"></path><path d="M967.04 597.12h8.96a18.56 18.56 0 0 1 23.68 0 23.04 23.04 0 0 1 7.04 12.8 280.32 280.32 0 0 1 5.12 39.68 19.84 19.84 0 0 1-7.04 13.44 29.44 29.44 0 0 1-30.72 0c-8.96-23.04-2.56-46.08-7.04-65.92z" fill="#C02343" p-id="10039"></path><path d="M1088 680.32c7.68-4.48 6.4-11.52 6.4-17.92 24.32 10.24 32.64 33.92 44.16 55.04s-14.72 12.8-15.36 23.04c-23.68 3.2-32-15.36-42.88-30.72a34.56 34.56 0 0 1 7.68-29.44z" fill="#B3204E" p-id="10040"></path><path d="M1120.64 590.08c24.32 5.12 28.8 32.64 48.64 42.24l-8.32 35.84c-24.32 5.76-22.4-19.84-33.92-29.44a44.16 44.16 0 0 1-13.44-32 37.76 37.76 0 0 1 0-8.96 17.28 17.28 0 0 1 7.04-7.68z" fill="#C2213F" p-id="10041"></path><path d="M1010.56 832c0-20.48-27.52-36.48-10.88-60.16 0-5.12 0-7.68 5.12-8.96h8.96a32 32 0 0 1 13.44 10.88 111.36 111.36 0 0 1 9.6 34.56 54.4 54.4 0 0 1 0 23.04c-3.2 7.68-7.04 14.72-16.64 15.36s-12.16-8.96-9.6-14.72z" fill="#8C347F" p-id="10042"></path><path d="M999.68 608v-11.52a17.92 17.92 0 0 1 0-24.32 31.36 31.36 0 0 0 30.72-12.16c5.12 0 0-14.72 10.88-11.52l8.32 48v3.2c-10.88 5.12-24.32 3.2-34.56 11.52a11.52 11.52 0 0 1-15.36-3.2z" fill="#C4233F" p-id="10043"></path><path d="M1923.84 256h46.72c-30.08 25.6-10.88 64-34.56 99.84-5.12-39.68 15.36-72.32-12.16-99.84z" fill="#2C2C2C" p-id="10044"></path><path d="M1228.8 440.32a32 32 0 0 1-11.52 24.96 315.52 315.52 0 0 0-39.68-37.76 24.96 24.96 0 0 1 0-22.4 25.6 25.6 0 0 1 21.76-14.72c16.64 13.44 32.64 25.6 29.44 49.92z" fill="#DF5B2D" p-id="10045"></path><path d="M974.08 657.28h32a22.4 22.4 0 0 1 7.68 12.16c3.2 12.8 8.96 26.24 0 38.4a23.04 23.04 0 0 1-28.8 0 109.44 109.44 0 0 1-10.88-50.56z" fill="#B8254E" p-id="10046"></path><path d="M987.52 488.32c-12.8 0-17.92-10.88-28.16-12.16v-48.64a14.72 14.72 0 0 1 16 0 38.4 38.4 0 0 1 12.16 12.8 43.52 43.52 0 0 1 7.68 16.64 53.12 53.12 0 0 1 0 22.4 17.28 17.28 0 0 1-7.68 8.96z" fill="#D6422F" p-id="10047"></path><path d="M983.04 704h28.8a35.84 35.84 0 0 1 11.52 39.68 36.48 36.48 0 0 1-11.52 20.48h-5.76c-5.12-3.2-8.32-8.32-13.44-10.88a160 160 0 0 1-9.6-49.28z" fill="#AF2658" p-id="10048"></path><path d="M2005.12 289.92c10.24-10.24 0-39.68 21.12-34.56s0 25.6 0 39.04a229.76 229.76 0 0 1-4.48 41.6c0 5.76-3.84 10.24-8.96 8.32s0-8.32-3.84-12.8a67.84 67.84 0 0 0-5.76-24.96 21.12 21.12 0 0 1-3.84-6.4 10.24 10.24 0 0 1 5.76-10.24z" fill="#121212" p-id="10049"></path><path d="M1156.48 470.4a37.12 37.12 0 0 1-12.16-30.72 22.4 22.4 0 0 1 0-24.32 33.92 33.92 0 0 1 11.52-24.96 113.92 113.92 0 0 1 20.48 36.48 20.48 20.48 0 0 1 0 12.16c-3.2 12.16-6.4 25.6-19.84 31.36z" fill="#D94D37" p-id="10050"></path><path d="M1120.64 596.48v5.76c-5.76 6.4 0 17.28-7.68 22.4h-3.84c-11.52-5.12-17.92-19.2-32-19.2l8.32-40.96c23.68-2.56 23.68 20.48 35.2 32z" fill="#C02647" p-id="10051"></path><path d="M1017.6 331.52v11.52a37.12 37.12 0 0 1 0 26.24 32.64 32.64 0 0 1-36.48 0 30.72 30.72 0 0 1-7.04-25.6 21.76 21.76 0 0 1 7.04-14.72 28.8 28.8 0 0 1 36.48 2.56z" fill="#E46B28" p-id="10052"></path><path d="M1102.08 656l6.4-29.44c24.96 9.6 32.64 35.84 48 53.76a32.64 32.64 0 0 1-11.52 26.24 171.52 171.52 0 0 1-42.88-50.56z" fill="#BB2348" p-id="10053"></path><path d="M1017.6 331.52h-35.2a8.96 8.96 0 0 1 0-10.24 19.2 19.2 0 0 1 8.32-7.68l17.92-35.84a79.36 79.36 0 0 1 8.96 53.76z" fill="#E87A2C" p-id="10054"></path><path d="M1120.64 596.48c-17.92-3.2-17.28-27.52-35.84-30.08l17.28-42.88c0 20.48 0 39.68 30.08 36.48l-11.52 30.08z" fill="#C9263E" p-id="10055"></path><path d="M1084.16 710.4l40.96 30.08c3.84 11.52-14.72 12.16-11.52 23.68a12.8 12.8 0 0 1-16.64 0 76.8 76.8 0 0 1-21.76-42.88 15.36 15.36 0 0 1 5.12-12.16z" fill="#B02557" p-id="10056"></path><path d="M2005.12 289.92v10.88c-4.48 7.04-10.24 10.88-18.56 7.04l-10.88 12.16a54.4 54.4 0 0 1 0-37.76V256c30.08-4.48 8.32 31.36 29.44 33.92z" fill="#0A0A0A" p-id="10057"></path><path d="M1174.4 439.68v-12.16h6.4c23.04 0 32 17.92 36.48 37.76 3.2 8.96-9.6 13.44-5.76 22.4a8.32 8.32 0 0 1-7.68 0 345.6 345.6 0 0 1-29.44-48z" fill="#DB522F" p-id="10058"></path><path d="M1156.48 680.32a213.12 213.12 0 0 1-48-53.76l11.52-24.32a107.52 107.52 0 0 0 40.96 64c0 6.4 1.28 11.52-4.48 14.08z" fill="#BF2243" p-id="10059"></path><path d="M1210.24 350.08l-11.52 17.28c-16 9.6-21.76 0-26.24-12.8 7.04-12.16 0-30.72 19.2-37.76 6.4 0 10.24 8.96 14.72 13.44a30.72 30.72 0 0 1 3.84 19.84z" fill="#E36A28" p-id="10060"></path><path d="M1102.08 656a110.08 110.08 0 0 1 42.88 50.56 7.68 7.68 0 0 1-4.48 10.88 229.12 229.12 0 0 1-44.16-55.04z" fill="#B7214B" p-id="10061"></path><path d="M1228.8 440.32l-30.72-49.28a7.04 7.04 0 0 1 0-8.96 64 64 0 0 1 35.84 48c0 1.92 1.28 7.68-5.12 10.24z" fill="#E2682D" p-id="10062"></path><path d="M1088 680.32a48 48 0 0 1-5.76 30.08c-14.08 0-17.28-13.44-27.52-18.56a23.04 23.04 0 0 1-4.48-6.4 17.92 17.92 0 0 1 7.04-17.28l6.4-13.44a31.36 31.36 0 0 0 24.32 25.6z" fill="#B32654" p-id="10063"></path><path d="M1180.8 427.52h-6.4a40.96 40.96 0 0 1-18.56-37.12c0-4.48 0-9.6 5.12-11.52s16 5.12 21.76 11.52a13.44 13.44 0 0 1 0 12.8z" fill="#DC532F" p-id="10064"></path><path d="M1006.08 271.36c-16-10.24-32.64-19.84-36.48-40.96a14.08 14.08 0 0 1 19.2 0 64 64 0 0 1 17.28 40.96z" fill="#F39327" p-id="10065"></path><path d="M626.56 451.84h64a50.56 50.56 0 0 1-64 0z" fill="#787878" p-id="10066"></path><path d="M1181.44 391.68c-10.24 0-13.44-9.6-20.48-12.8a35.2 35.2 0 0 1 11.52-24.32c8.32 5.12 13.44 16 26.24 12.8v12.16c-6.4 4.48-7.04 14.72-17.28 12.16z" fill="#E05E2B" p-id="10067"></path><path d="M960 416v-36.48a15.36 15.36 0 0 1 15.36-3.84 21.12 21.12 0 0 1 10.88 11.52 17.92 17.92 0 0 1 0 8.32 20.48 20.48 0 0 1 0 16 23.68 23.68 0 0 1-9.6 8.32 17.28 17.28 0 0 1-16.64-3.84z" fill="#DF5C2A" p-id="10068"></path><path d="M54.4 880h64a45.44 45.44 0 0 1-64 0z" fill="#C4C4C4" p-id="10069"></path><path d="M1348.48 891.52h55.04a33.92 33.92 0 0 1-55.04 0z" fill="#B4B4B4" p-id="10070"></path><path d="M1984 307.84l18.56-7.04a24.96 24.96 0 0 1 0 28.8c-5.12 0 0 12.16-10.88 10.88s-5.12-7.68-5.76-12.16 1.28-12.8-1.92-20.48z" fill="#292929" p-id="10071"></path><path d="M1059.2 668.16c0 7.04 0 11.52-6.4 16.64s-10.24-9.6-12.16-17.28a300.16 300.16 0 0 1 0-33.92v-24.32a43.52 43.52 0 0 1 6.4-13.44c16 23.04 0 49.92 12.16 72.32z" fill="#EED2DC" p-id="10072"></path><path d="M1252.48 366.72c-4.48-21.76-28.16 0-35.84-17.92h41.6c-0.64 2.56 3.84 12.16-5.76 17.92z" fill="#ED934F" p-id="10073"></path><path d="M960 320h8.32a32 32 0 0 1 8.32 24.96 15.36 15.36 0 0 1-3.84 12.8 14.72 14.72 0 0 1-17.28 0c4.48-14.72-4.48-28.16 4.48-37.76z" fill="#E77327" p-id="10074"></path><path d="M247.04 880h48.64a28.8 28.8 0 0 1-48.64 0z" fill="#D7D7D7" p-id="10075"></path><path d="M1017.6 367.36v-24.32c12.8 27.52 0 57.6 10.88 85.12a12.8 12.8 0 0 1-8.32 0 11.52 11.52 0 0 1-7.04-5.12 29.44 29.44 0 0 1 0-12.8 138.88 138.88 0 0 1 0-23.04 31.36 31.36 0 0 1 4.48-19.84z" fill="#ECA9A2" p-id="10076"></path><path d="M1258.88 332.16c0-25.6-10.24-49.28-5.12-74.88a92.8 92.8 0 0 1 5.12 74.88z" fill="#F3962D" p-id="10077"></path><path d="M1096.32 768h17.28c4.48 5.76 7.68 12.16 0 18.56a18.56 18.56 0 0 1-24.32 0 7.04 7.04 0 0 0-5.12 0 9.6 9.6 0 0 1-3.2-10.88 14.08 14.08 0 0 1 15.36-7.68z" fill="#CC9DBF" p-id="10078"></path><path d="M1199.36 538.88c3.2-15.36-7.68-26.24-12.8-38.4a15.36 15.36 0 0 1 13.44-5.76c9.6 0 17.28 5.12 10.24 17.28a47.36 47.36 0 0 1-10.88 26.88z" fill="#CD2939" p-id="10079"></path><path d="M1763.84 390.4c12.8-18.56 24.96-16.64 37.12 0z" fill="#858585" p-id="10080"></path><path d="M1180.16 594.56c0-11.52-19.2-28.8 8.96-33.28 0.64 14.72 2.56 24.32-8.96 33.28z" fill="#CD2939" p-id="10081"></path><path d="M1016.32 843.52l13.44-12.8a5.76 5.76 0 0 1 8.32 0c0 7.68 4.48 15.36 0 23.04l-6.4 5.12H1024l-7.04-5.76a9.6 9.6 0 0 1-0.64-9.6z" fill="#8C4891" p-id="10082"></path><path d="M960 355.84h17.92a17.92 17.92 0 0 1 0 23.68H960z" fill="#E36729" p-id="10083"></path><path d="M1088 783.36h24.32c0 12.8-12.8 19.84-17.28 31.36z" fill="#882F7C" p-id="10084"></path><path d="M1041.92 932.48c-14.08-5.76 3.84-28.8-17.28-30.72 0-4.48 4.48-10.24 7.68-12.16s7.04 3.84 7.68 7.68 1.28 23.68 1.92 35.2z" fill="#9A71AF" p-id="10085"></path><path d="M2005.76 332.16v-28.8c19.84 6.4 8.32 17.92 4.48 28.16h-5.76z" fill="#BCBCBC" p-id="10086"></path><path d="M1974.4 282.24V320c0 7.68 0 15.36-5.76 24.96a154.24 154.24 0 0 1 5.76-62.72z" fill="#121212" p-id="10087"></path><path d="M752.64 366.72c10.24-17.28 20.48-18.56 30.72 0z" fill="#2F2F2F" p-id="10088"></path><path d="M1204.48 331.52c-8.96 0-12.16-6.4-12.8-14.72a7.68 7.68 0 0 1 5.12-10.88 16.64 16.64 0 0 1 8.32 14.72 7.68 7.68 0 0 1-0.64 10.88z" fill="#E87B31" p-id="10089"></path><path d="M1016.32 843.52v11.52c-26.88 0-12.16-14.08-6.4-24.32 1.28 5.12 0.64 10.24 6.4 12.8z" fill="#E5D6E6" p-id="10090"></path><path d="M1210.24 512c0-7.68-3.2-12.16-12.16-12.16s0-12.16 6.4-13.44h7.04c9.6 9.6 4.48 17.92-1.28 25.6z" fill="#E17877" p-id="10091"></path><path d="M988.8 228.48h-24.32c0-6.4 0-12.16 9.6-12.8a12.16 12.16 0 0 1 14.72 12.8z" fill="#F7BF82" p-id="10092"></path><path d="M963.84 240.64c0 14.08 4.48 29.44-5.12 42.24a80 80 0 0 1 5.12-42.24z" fill="#F69C2C" p-id="10093"></path><path d="M1144.32 415.36v24.32h-10.88a38.4 38.4 0 0 1 10.88-24.32z" fill="#D74940" p-id="10094"></path><path d="M1024 428.8h5.12v23.68h-12.8c-6.4-11.52 1.28-17.28 7.68-23.68z" fill="#CE2933" p-id="10095"></path><path d="M1041.28 548.48l-10.88 11.52c0-8.32-3.84-17.92 5.76-24.32s5.12 7.68 5.12 12.8z" fill="#D1475B" p-id="10096"></path><path d="M1173.12 620.16c-17.92-10.24-4.48-16.64 3.84-23.04z" fill="#C82A43" p-id="10097"></path><path d="M960 416h18.56a8.32 8.32 0 0 1 0 11.52H960z" fill="#DC5534" p-id="10098"></path><path d="M992.64 753.28c8.32 0 12.8 0 13.44 10.88l-6.4 6.4c-6.4-2.56-5.76-10.88-7.04-17.28z" fill="#AD366B" p-id="10099"></path><path d="M1036.16 855.68V832c5.12 0 7.68 0 5.76 6.4v6.4c3.84 3.84 3.84 7.04 0 10.88z" fill="#88438E" p-id="10100"></path><path d="M1041.28 854.4v-10.88h5.76a7.04 7.04 0 0 1 0 10.88z" fill="#C19FC6" p-id="10101"></path><path d="M1048.32 854.4v-10.88l6.4 5.76c-1.28 3.2-2.56 5.76-6.4 5.12z" fill="#975D9D" p-id="10102"></path><path d="M1024 860.8c0-5.12 3.84-5.76 5.76 0s-5.76 5.12-5.76 0z" fill="#CBAFD0" p-id="10103"></path><path d="M794.24 608.64a298.88 298.88 0 0 1-23.04 133.76 67.2 67.2 0 0 1-48 40.96 21.12 21.12 0 0 1-24.96 0 39.68 39.68 0 0 1-31.36-37.12c-5.76-83.84 22.4-128 103.68-138.88a16.64 16.64 0 0 1 23.68 1.28z" fill="#FDFDFD" p-id="10104"></path><path d="M794.24 608.64H768a15.36 15.36 0 0 1 14.72-11.52c10.88 0 10.88 5.76 11.52 11.52z" fill="#ACACAC" p-id="10105"></path><path d="M698.24 784h24.96c-8.32 16-19.2 15.36-24.96 0z" fill="#515151" p-id="10106"></path><path d="M1433.6 378.88c23.04 0 31.36 19.84 37.76 37.76a173.44 173.44 0 0 1 9.6 46.72c0 42.24-3.84 48.64-44.16 48.64h-64c-15.36 0-20.48-7.68-21.76-21.12a133.76 133.76 0 0 1 64-112 14.72 14.72 0 0 1 18.56 0z" fill="#FDFDFD" p-id="10107"></path><path d="M1433.6 378.88h-18.56c0-4.48 0-9.6 7.68-10.24s9.6 4.48 10.88 10.24z" fill="#363636" p-id="10108"></path><path d="M1204.48 486.4a12.8 12.8 0 0 0-6.4 13.44h-41.6v-29.44a99.2 99.2 0 0 1 17.92-30.72c21.12 8.32 22.4 29.44 30.08 46.72z" fill="#D74631" p-id="10109"></path><path d="M987.52 488.32v-12.8c5.12-7.04 3.2-17.28 9.6-24.32a12.16 12.16 0 0 1 11.52 0 225.28 225.28 0 0 1-23.68 53.76z" fill="#D54449" p-id="10110"></path><path d="M999.68 572.16v24.32h-23.68c0-12.16 11.52-16.64 17.92-24.32z" fill="#C52642" p-id="10111"></path><path d="M1024 428.8l-7.04 23.04h-5.76c-5.12-10.24-10.24-19.84 6.4-24.32z" fill="#DA5551" p-id="10112"></path><path d="M1204.48 331.52V320a31.36 31.36 0 0 1 11.52 23.04v5.12h-6.4c-5.76-2.56-4.48-10.24-5.12-16.64z" fill="#F8B765" p-id="10113"></path><path d="M1029.76 807.04L1024 768v-3.84a50.56 50.56 0 0 1 12.8-21.12c18.56 0 25.6 16 32 30.08a10.24 10.24 0 0 1 0 7.68l-12.16 30.08a21.76 21.76 0 0 1-26.88-3.84z" fill="#862E7C" p-id="10114"></path><path d="M1029.76 807.04a40.32 40.32 0 0 1 24.32 5.76 21.76 21.76 0 0 1-12.16 24.32l-5.76-6.4h-6.4z" fill="#823080" p-id="10115"></path><path d="M1066.24 782.72v-6.4c-3.84-5.76 0-10.24 4.48-13.44a16 16 0 0 1 14.72 8.32v11.52z" fill="#882F7C" p-id="10116"></path><path d="M987.52 313.6l-5.12 5.76h-7.04V288c10.88 7.68 2.56 20.48 12.16 25.6z" fill="#F7A742" p-id="10117"></path><path d="M975.36 320h7.04v24.32h-4.48l-6.4-23.68z" fill="#F1A76F" p-id="10118"></path><path d="M1048.32 632.32v35.84a31.36 31.36 0 0 1-42.24 0v-23.68c10.88-16 23.04-25.6 42.24-12.16z" fill="#B82048" p-id="10119"></path><path d="M1048.32 632.32c-16-4.48-28.8 5.76-42.24 12.16a118.4 118.4 0 0 1-6.4-36.48h12.16a30.72 30.72 0 0 1 35.84 0z" fill="#BB2044" p-id="10120"></path><path d="M1011.84 768c0-6.4 0-13.44 5.76-17.28s13.44 12.8 5.76 22.4z" fill="#C7789C" p-id="10121"></path><path d="M1047.68 608h-35.84c5.76-20.48 23.68-8.32 35.2-12.16z" fill="#C02344" p-id="10122"></path><path d="M1181.44 391.68c5.12-4.48 7.68-13.44 17.28-12.16v11.52c-5.76 4.48-7.04 14.08-17.28 12.16z" fill="#E98D67" p-id="10123"></path><path d="M1024 768a26.24 26.24 0 0 0-5.76-22.4 98.56 98.56 0 0 0-5.76-42.88 117.76 117.76 0 0 0-5.76-36.48h42.24c0 5.76 0 12.16 4.48 16.64a27.52 27.52 0 0 1 0 26.24c-3.2 13.44-5.76 27.52-20.48 33.92 3.2 14.08 2.56 24.96-8.96 24.96z" fill="#B02253" p-id="10124"></path><path d="M1018.24 427.52c-8.96 6.4-5.76 16-6.4 24.32h-11.52a7.68 7.68 0 0 1-12.16 0l-6.4-11.52c0-9.6 0-19.84 7.04-27.52a23.04 23.04 0 0 1 28.16 3.2z" fill="#D74530" p-id="10125"></path><path d="M986.88 416c0 8.32 3.84 17.92-5.12 24.32a12.8 12.8 0 0 1-5.76-12.8V416l5.76-5.12a7.04 7.04 0 0 1 5.12 5.12z" fill="#E68877" p-id="10126"></path><path d="M988.16 451.84h12.16a33.28 33.28 0 0 1-12.16 23.68z" fill="#D53E33" p-id="10127"></path><path d="M1017.6 367.36v24.32a27.52 27.52 0 0 1-36.48 0 22.4 22.4 0 0 1 0-23.68z" fill="#E06032" p-id="10128"></path><path d="M982.4 367.36v23.68c-5.76 0-5.76-7.04-7.04-11.52v-35.84h4.48z" fill="#EFAB89" p-id="10129"></path><path d="M1048.32 710.4a42.24 42.24 0 0 0 5.76-23.68c17.28 0 20.48 16 30.08 23.68l-5.76 12.16a26.24 26.24 0 0 1-5.76 32c-16 3.84-18.56-7.68-19.2-18.56s1.28-17.92-5.12-25.6z" fill="#A9235C" p-id="10130"></path><path d="M1072 752l6.4-29.44a144.64 144.64 0 0 1 17.92 42.24l-11.52 6.4c-5.12 0-10.24 0-12.8-6.4a8.96 8.96 0 0 1 0-12.8z" fill="#AA275E" p-id="10131"></path><path d="M981.76 391.68h36.48v24.32h-30.08l-5.12-5.12z" fill="#DC5434" p-id="10132"></path><path d="M1072 752V768l-6.4 11.52c-9.6-9.6-16-23.04-29.44-29.44a74.88 74.88 0 0 0 12.16-36.48c10.88 5.12 12.16 14.72 12.16 24.96s0 12.8 11.52 13.44z" fill="#902E77" p-id="10133"></path></svg>